nColumns=19
nRows=59
DataType=double
version=3
OpenSimVersion=4.1
endheader
time	ground_force_1_vx	ground_force_1_vy	ground_force_1_vz	ground_force_1_px	ground_force_1_py	ground_force_1_pz	ground_force_1_mx	ground_force_1_my	ground_force_1_mz	ground_force_2_vx	ground_force_2_vy	ground_force_2_vz	ground_force_2_px	ground_force_2_py	ground_force_2_pz	ground_force_2_mx	ground_force_2_my	ground_force_2_mz
0	0	0	0	0.03768	0	-0.157627	0	0	0	0	0	0	0.678591	0	-0.316044	0	0	0
0.01	-12.4799	21.696	1.52534	0.0360528	0.0036	-0.158261	0	0.132295	0	0	0	0	0.678591	0	-0.316044	0	0	0
0.02	-27.2987	99.2382	7.98916	0.0285646	0.006	-0.162544	0	0.231239	0	0	0	0	0.678591	0	-0.316044	0	0	0
0.03	-23.5518	184.804	16.618	0.0279581	0.006	-0.16492	0	-0.0135823	0	0	0	0	0.678591	0	-0.316044	0	0	0
0.04	-34.1576	235.309	20.559	0.0306826	0.006	-0.166604	0	-0.234319	0	0	0	0	0.678591	0	-0.316044	0	0	0
0.05	-47.8858	266.326	24.643	0.0342679	0.006	-0.169045	0	0.300062	0	0	0	0	0.678591	0	-0.316044	0	0	0
0.06	-54.0571	296.587	30.0343	0.0399668	0.006	-0.170516	0	1.49045	0	0	0	0	0.678591	0	-0.316044	0	0	0
0.07	-69.6407	339.079	29.5307	0.0516219	0.006	-0.169531	0	2.09922	0	0	0	0	0.678591	0	-0.316044	0	0	0
0.08	-97.8001	406.138	18.7889	0.0671487	0.006	-0.16689	0	1.49496	0	0	0	0	0.678591	0	-0.316044	0	0	0
0.09	-121.182	469.405	4.59345	0.0785382	0.006	-0.16488	0	0.848541	0	0	0	0	0.678591	0	-0.316044	0	0	0
0.1	-129.577	503.271	-6.5423	0.0850643	0.006	-0.163993	0	0.704314	0	0	0	0	0.678591	0	-0.316044	0	0	0
0.11	-134.024	523.226	-14.3495	0.0897584	0.006	-0.163648	0	0.784164	0	0	0	0	0.678591	0	-0.316044	0	0	0
0.12	-139.907	552.502	-19.3001	0.0937299	0.006	-0.163646	0	0.986052	0	0	0	0	0.678591	0	-0.316044	0	0	0
0.13	-145.241	592.151	-20.8646	0.0973219	0.006	-0.164155	0	1.32613	0	0	0	0	0.678591	0	-0.316044	0	0	0
0.14	-149.306	632.887	-21.3346	0.100455	0.006	-0.165067	0	1.50395	0	0	0	0	0.678591	0	-0.316044	0	0	0
0.15	-146.824	667.328	-23.2112	0.102353	0.006	-0.166038	0	1.36918	0	0	0	0	0.678591	0	-0.316044	0	0	0
0.16	-140.343	695.988	-23.0818	0.103642	0.006	-0.167192	0	1.2232	0	0	0	0	0.678591	0	-0.316044	0	0	0
0.17	-130.809	715.285	-22.5254	0.104351	0.006	-0.168238	0	0.94013	0	0	0	0	0.678591	0	-0.316044	0	0	0
0.18	-119.625	721.934	-23.1435	0.105202	0.006	-0.168896	0	0.515546	0	0	0	0	0.678591	0	-0.316044	0	0	0
0.19	-109.78	716.998	-23.8828	0.107105	0.006	-0.169299	0	0.0930524	0	0	0	0	0.678591	0	-0.316044	0	0	0
0.2	-102.762	703.021	-24.4586	0.110236	0.006	-0.169557	0	-0.265716	0	0	0	0	0.678591	0	-0.316044	0	0	0
0.21	-97.5753	683.355	-25.1992	0.113935	0.006	-0.169611	0	-0.557204	0	0	0	0	0.678591	0	-0.316044	0	0	0
0.22	-92.664	662.129	-26.4804	0.11778	0.006	-0.169559	0	-0.75436	0	0	0	0	0.678591	0	-0.316044	0	0	0
0.23	-86.9303	640.992	-27.4233	0.121471	0.006	-0.169639	0	-0.866611	0	0	0	0	0.678591	0	-0.316044	0	0	0
0.24	-79.9934	620.218	-26.9402	0.124796	0.006	-0.16994	0	-0.949649	0	0	0	0	0.678591	0	-0.316044	0	0	0
0.25	-71.9446	599.365	-25.0161	0.127687	0.006	-0.170419	0	-0.982536	0	0	0	0	0.678591	0	-0.316044	0	0	0
0.26	-63.4998	577.997	-22.2386	0.130086	0.006	-0.170916	0	-1.02427	0	0	0	0	0.678591	0	-0.316044	0	0	0
0.27	-55.2369	556.99	-19.4228	0.132215	0.006	-0.171334	0	-1.12365	0	0	0	0	0.678591	0	-0.316044	0	0	0
0.28	-47.393	536.212	-17.0959	0.13452	0.006	-0.171612	0	-1.24945	0	0	0	0	0.678591	0	-0.316044	0	0	0
0.29	-40.5585	515.359	-15.4275	0.136983	0.006	-0.171787	0	-1.35693	0	0	0	0	0.678591	0	-0.316044	0	0	0
0.3	-34.939	494.548	-14.9522	0.13945	0.006	-0.171869	0	-1.48448	0	0	0	0	0.678591	0	-0.316044	0	0	0
0.31	-30.2286	475.381	-15.4469	0.142132	0.006	-0.171819	0	-1.62797	0	0	0	0	0.678591	0	-0.316044	0	0	0
0.32	-25.9493	459.835	-16.192	0.145085	0.006	-0.171592	0	-1.73361	0	0	0	0	0.678591	0	-0.316044	0	0	0
0.33	-21.6954	448.79	-17.2328	0.148249	0.006	-0.171276	0	-1.81885	0	0	0	0	0.678591	0	-0.316044	0	0	0
0.34	-17.8463	441.77	-18.3322	0.151501	0.006	-0.170913	0	-1.8879	0	0	0	0	0.678591	0	-0.316044	0	0	0
0.35	-14.9253	438.506	-19.0117	0.155003	0.006	-0.170612	0	-1.92381	0	0	0	0	0.678591	0	-0.316044	0	0	0
0.36	-12.7204	438.516	-19.3744	0.158739	0.006	-0.170391	0	-1.92903	0	0	0	0	0.678591	0	-0.316044	0	0	0
0.37	-10.6311	441.564	-19.6447	0.162347	0.006	-0.170192	0	-1.96317	0	0	0	0	0.678591	0	-0.316044	0	0	0
0.38	-8.57345	447.2	-19.9454	0.165736	0.006	-0.16997	0	-2.06924	0	0	0	0	0.678591	0	-0.316044	0	0	0
0.39	-6.45824	454.232	-20.319	0.169118	0.006	-0.169656	0	-2.24513	0	0	0	0	0.678591	0	-0.316044	0	0	0
0.4	-4.08768	462.077	-20.9359	0.172381	0.006	-0.169373	0	-2.46741	0	0	0	0	0.678591	0	-0.316044	0	0	0
0.41	-1.53925	471.406	-21.7854	0.17541	0.006	-0.169001	0	-2.70776	0	0	0	0	0.678591	0	-0.316044	0	0	0
0.42	1.03566	484.074	-22.9927	0.178368	0.006	-0.1686	0	-3.00252	0	0	0	0	0.678591	0	-0.316044	0	0	0
0.43	3.54842	501.546	-24.2102	0.181436	0.006	-0.168186	0	-3.3305	0	0	0	0	0.678591	0	-0.316044	0	0	0
0.44	5.80448	522.377	-25.2233	0.184613	0.006	-0.167721	0	-3.64547	0	0	0	0	0.678591	0	-0.316044	0	0	0
0.45	8.19183	543.615	-26.5103	0.188028	0.006	-0.167151	0	-3.89069	0	0	0	0	0.678591	0	-0.316044	0	0	0
0.46	11.5067	562.666	-28.351	0.191534	0.006	-0.166481	0	-4.03597	0	0	0	0	0.678591	0	-0.316044	0	0	0
0.47	16.0471	579.355	-30.949	0.195081	0.006	-0.165772	0	-4.12127	0	0	0	0	0.678591	0	-0.316044	0	0	0
0.48	21.5932	595.525	-33.4056	0.198527	0.006	-0.165077	0	-4.20195	0	0	0	0	0.678591	0	-0.316044	0	0	0
0.49	28.1959	611.766	-34.9252	0.201694	0.006	-0.164514	0	-4.32388	0	0	0	0	0.678591	0	-0.316044	0	0	0
0.5	35.1512	626.005	-36.4394	0.204843	0.006	-0.164039	0	-4.37865	0	0	0	0	0.678591	0	-0.316044	0	0	0
0.51	41.5403	637.656	-37.9259	0.208159	0.006	-0.16361	0	-4.34529	0	0	0	0	0.678591	0	-0.316044	0	0	0
0.52	47.2874	648.182	-38.6282	0.211449	0.006	-0.16324	0	-4.27167	0	0	0	0	0.678591	0	-0.316044	0	0	0
0.53	53.3663	658.495	-38.6642	0.214389	0.006	-0.162986	0	-4.17684	0	0	0	0	0.678591	0	-0.316044	0	0	0
0.54	60.5585	667.583	-38.4972	0.216827	0.006	-0.162826	0	-4.09946	0	0	0	0	0.678591	0	-0.316044	0	0	0
0.55	68.69	673.48	-38.272	0.218876	0.006	-0.162659	0	-3.98381	0	0	0	0	0.678591	0	-0.316044	0	0	0
0.56	76.9874	674.316	-37.7529	0.22098	0.006	-0.162484	0	-3.8301	0	0	0	0	0.678591	0	-0.316044	0	0	0
0.57	85.0184	668.973	-36.8605	0.223104	0.006	-0.16237	0	-3.7127	0	2.28944	10.2764	-1.55759	0.679385	0.0021	-0.316627	0	0.286238	0
0.58	92.379	657.499	-35.6778	0.225184	0.006	-0.162427	0	-3.62209	0	16.4938	77.4623	-6.59505	0.697806	0.006	-0.329818	0	0.807223	0
